<svg xmlns="http://www.w3.org/2000/svg" width="32.484" height="33" viewBox="0 0 32.484 33"><defs><style>.a{fill:#f2f2f2;}</style></defs><path class="a" d="M22.577,6.367c-3.454,0-6.306-2.242-10.649-2.242A12.527,12.527,0,0,0,7.543,4.9,3.61,3.61,0,1,0,2.109,6.571V31.453A1.547,1.547,0,0,0,3.656,33H4.687a1.547,1.547,0,0,0,1.547-1.547V25.369a18.008,18.008,0,0,1,7.376-1.426c3.454,0,6.306,2.242,10.649,2.242a13.493,13.493,0,0,0,7.9-2.633,2.059,2.059,0,0,0,.892-1.7V6.184a2.062,2.062,0,0,0-2.932-1.87,18.765,18.765,0,0,1-7.538,2.053Z" transform="translate(-0.563 0)"/></svg>